<svg width="36" height="36" viewBox="0 0 36 36" fill="none" xmlns="http://www.w3.org/2000/svg">
<path fill-rule="evenodd" clip-rule="evenodd" d="M10.6357 13.0909C10.6357 12.639 11.0021 12.2727 11.4539 12.2727H24.5448C24.9967 12.2727 25.363 12.639 25.363 13.0909C25.363 13.5428 24.9967 13.9091 24.5448 13.9091H11.4539C11.0021 13.9091 10.6357 13.5428 10.6357 13.0909ZM10.6357 18C10.6357 17.5481 11.0021 17.1818 11.4539 17.1818H24.5448C24.9967 17.1818 25.363 17.5481 25.363 18C25.363 18.4518 24.9967 18.8182 24.5448 18.8182H11.4539C11.0021 18.8182 10.6357 18.4518 10.6357 18ZM10.6357 22.9091C10.6357 22.4572 11.0021 22.0909 11.4539 22.0909H24.5448C24.9967 22.0909 25.363 22.4572 25.363 22.9091C25.363 23.3609 24.9967 23.7273 24.5448 23.7273H11.4539C11.0021 23.7273 10.6357 23.3609 10.6357 22.9091Z" fill="white"/>
</svg>
