<svg width="25" height="21" viewBox="0 0 25 21" fill="none" xmlns="http://www.w3.org/2000/svg">
<path fill-rule="evenodd" clip-rule="evenodd" d="M1.95886 8.76766C8.3723 5.97342 12.6489 4.13129 14.7888 3.24127C20.8984 0.700063 22.1679 0.258628 22.9954 0.244052C23.1774 0.240846 23.5843 0.285949 23.8479 0.499831C24.0705 0.680429 24.1317 0.924391 24.161 1.09562C24.1903 1.26684 24.2268 1.6569 24.1978 1.96168C23.8667 5.4404 22.4341 13.8823 21.7053 17.7785C21.3969 19.4272 20.7897 19.98 20.2018 20.0341C18.9242 20.1516 17.9541 19.1898 16.7167 18.3786C14.7804 17.1094 13.6865 16.3192 11.807 15.0807C9.63492 13.6493 11.043 12.8626 12.2809 11.5769C12.6048 11.2404 18.2339 6.12038 18.3428 5.65591C18.3564 5.59782 18.3691 5.38129 18.2405 5.26695C18.1118 5.15261 17.922 5.19171 17.785 5.22281C17.5907 5.26688 14.4975 7.3114 8.50523 11.3564C7.62722 11.9593 6.83195 12.253 6.11941 12.2376C5.3339 12.2207 3.82289 11.7935 2.6996 11.4283C1.32185 10.9805 0.226844 10.7437 0.322194 9.98312C0.371859 9.58696 0.917413 9.1818 1.95886 8.76766Z" fill="white"/>
</svg>
